<svg xmlns="http://www.w3.org/2000/svg"  viewBox="0 0 64 64" width="64px" height="64px"><linearGradient id="R_FDZw81mQ~I9YaM19jQpa" x1="23.45" x2="23.45" y1="13.887" y2="57" gradientUnits="userSpaceOnUse"><stop offset="0" stop-color="#6dc7ff"/><stop offset="1" stop-color="#e6abff"/></linearGradient><polygon fill="url(#R_FDZw81mQ~I9YaM19jQpa)" points="7,35.316 23.547,57 39.9,57 7,13.887"/><linearGradient id="R_FDZw81mQ~I9YaM19jQpb" x1="46.721" x2="46.721" y1="15.06" y2="42" gradientUnits="userSpaceOnUse"><stop offset="0" stop-color="#6dc7ff"/><stop offset="1" stop-color="#e6abff"/></linearGradient><polygon fill="url(#R_FDZw81mQ~I9YaM19jQpb)" points="52.795,42 57,36.489 57,15.06 36.442,42"/><linearGradient id="R_FDZw81mQ~I9YaM19jQpc" x1="32" x2="32" y1="12.887" y2="58" gradientUnits="userSpaceOnUse"><stop offset="0" stop-color="#1a6dff"/><stop offset="1" stop-color="#c822ff"/></linearGradient><path fill="url(#R_FDZw81mQ~I9YaM19jQpc)" d="M39.899,58H23.547c-0.312,0-0.605-0.146-0.795-0.394L6.205,35.923	C6.072,35.749,6,35.535,6,35.316v-21.43c0-0.429,0.273-0.81,0.68-0.947c0.405-0.137,0.855-0.001,1.115,0.341l32.899,43.113	c0.23,0.302,0.27,0.709,0.102,1.05C40.627,57.784,40.279,58,39.899,58z M24.042,56h13.837L8,16.846v18.133L24.042,56z M52.795,43	H36.442c-0.38,0-0.728-0.216-0.896-0.557c-0.168-0.341-0.129-0.748,0.102-1.05l20.558-26.94c0.26-0.342,0.71-0.476,1.115-0.341	C57.727,14.25,58,14.631,58,15.06v21.43c0,0.219-0.072,0.433-0.205,0.606l-4.205,5.511C53.4,42.854,53.106,43,52.795,43z M38.463,41	H52.3l3.7-4.849V18.019L38.463,41z"/></svg>